<svg xmlns="http://www.w3.org/2000/svg" version="1.1" xmlns:xlink="http://www.w3.org/1999/xlink" width="512" height="512" x="0" y="0" viewBox="0 0 88 88" style="enable-background:new 0 0 512 512" xml:space="preserve" class=""><g><path d="m81.476 22.12-37-20a1.002 1.002 0 0 0-.952 0l-37 20A1.027 1.027 0 0 0 6 23v42a1 1 0 0 0 .524.88l37 20A1.001 1.001 0 0 0 44 86a1.142 1.142 0 0 0 .476-.12l37-20A1 1 0 0 0 82 65V23a1.03 1.03 0 0 0-.524-.88ZM21.67 32.067l7.66 4.14v12.89l-3.013-4.272a1 1 0 0 0-1.136-.371l-3.511 1.184ZM78.897 23 44 41.863l-11.566-6.252L67.33 16.748Zm-13.67-7.389L30.332 34.474l-7.558-4.085 34.896-18.863ZM44 4.137l11.566 6.252L20.67 29.252 9.103 23ZM8 24.677l11.67 6.308V47.03a1 1 0 0 0 1.32.948l4.123-1.39 4.4 6.238a1 1 0 0 0 1.817-.576V37.288L43 43.596v39.727L8 64.403Zm37 58.646V43.596l35-18.918v39.726Z" fill="#9192a0" opacity="1" data-original="#000000" class=""></path><path d="m24.55 65.392-13.074-7.067a1 1 0 0 0-.952 1.76L23.6 67.152a1 1 0 0 0 .95-1.76ZM16.22 64.3l-4.744-2.564a1 1 0 1 0-.951 1.76l4.744 2.564a1 1 0 0 0 .951-1.76Z" fill="#9192a0" opacity="1" data-original="#000000" class=""></path></g></svg>