<?xml version="1.0" encoding="UTF-8"?>
<svg xmlns="http://www.w3.org/2000/svg" version="1.1" viewBox="0 0 327 127">
  <defs>
    <style>
      .cls-1 {
        fill: #194459;
      }
    </style>
  </defs>
  <!-- Generator: Adobe Illustrator 28.7.3, SVG Export Plug-In . SVG Version: 1.2.0 Build 164)  -->
  <g>
    <g id="Ebene_1">
      <g>
        <path class="cls-1" d="M65.86,61.6v-21.82c0-1.62.89-2.51,2.51-2.51h3.08c1.62,0,2.51.89,2.51,2.51v1.77c1.04-3.08,3.91-4.85,7.25-4.85,3.08,0,6.05,1.3,7.78,4.65,2.51-3.97,5.58-4.65,8.61-4.65,6.94,0,9.86,5.69,9.86,12v12.89c0,1.62-.94,2.51-2.56,2.51h-3.03c-1.62,0-2.51-.89-2.51-2.51v-12.53c0-3.76-1.46-5.79-3.86-5.79-2.24,0-4.7,1.83-4.8,6.73v11.59c0,1.62-.89,2.51-2.51,2.51h-3.08c-1.62,0-2.51-.89-2.51-2.51v-12.53c0-3.76-1.41-5.79-3.81-5.79s-4.85,1.98-4.85,6.99v11.33c0,1.62-.89,2.51-2.51,2.51h-3.08c-1.62,0-2.51-.89-2.51-2.51Z"/>
        <path class="cls-1" d="M111.93,50.7c0-7.88,5.38-13.99,12.89-13.99,3.55,0,6.68,1.36,8.61,4.38v-1.3c0-1.62.89-2.51,2.51-2.51h3.08c1.62,0,2.51.89,2.51,2.51v21.82c0,1.62-.89,2.51-2.51,2.51h-3.08c-1.62,0-2.51-.89-2.51-2.51v-1.25c-1.93,2.98-5.06,4.33-8.61,4.33-7.52,0-12.89-6.05-12.89-13.99ZM133.54,50.7c0-4.28-2.71-7.52-6.84-7.52s-6.68,3.39-6.68,7.52,2.45,7.52,6.68,7.52,6.84-3.24,6.84-7.52Z"/>
        <path class="cls-1" d="M147.26,29.92c0-2.4,1.72-4.23,4.85-4.23s4.85,1.83,4.85,4.23-1.88,4.18-4.85,4.18-4.85-1.83-4.85-4.18ZM148.1,61.6v-21.82c0-1.62.89-2.51,2.51-2.51h3.03c1.62,0,2.56.89,2.56,2.51v21.82c0,1.62-.94,2.51-2.56,2.51h-3.03c-1.62,0-2.51-.89-2.51-2.51Z"/>
        <path class="cls-1" d="M162.82,61.6V28.88c0-1.62.89-2.51,2.51-2.51h3.03c1.62,0,2.56.89,2.56,2.51v32.72c0,1.62-.94,2.51-2.56,2.51h-3.03c-1.62,0-2.51-.89-2.51-2.51Z"/>
        <path class="cls-1" d="M176.38,51.32c0-7.62,5.22-13.83,14.67-13.83,1.93,0,4.96.47,7.99,2.3.83.47.94,1.25.42,1.98l-.36.47c-.52.73-1.1.78-1.93.37-2.51-1.41-4.96-1.57-5.95-1.57-6.42,0-10.75,4.28-10.8,10.07.05,5.79,4.38,10.02,10.8,10.02.99,0,3.45-.16,5.95-1.57.84-.42,1.46-.31,1.93.42l.31.47c.52.73.26,1.67-1.04,2.35-2.77,1.51-5.53,1.88-7.31,1.88-9.24,0-14.61-5.95-14.67-13.36Z"/>
        <path class="cls-1" d="M203.62,51.11c0-7.46,5.01-13.62,13-13.62,4.23,0,7.88,1.83,10.23,5.74v-3.76c0-.84.47-1.41,1.36-1.41h1.2c.89,0,1.41.52,1.41,1.41v23.23c0,.89-.52,1.41-1.41,1.41h-1.2c-.89,0-1.36-.52-1.36-1.41v-3.71c-2.35,3.97-6.05,5.69-10.23,5.69-7.88,0-13-6.11-13-13.57ZM226.9,51.11c0-5.74-3.97-10.07-9.87-10.07s-9.45,4.59-9.45,10.07,3.5,10.02,9.5,10.02,9.81-4.18,9.81-10.02Z"/>
        <path class="cls-1" d="M239.42,62.7V27.78c0-.89.52-1.41,1.41-1.41h1.2c.84,0,1.36.52,1.36,1.41v34.92c0,.89-.52,1.41-1.36,1.41h-1.2c-.89,0-1.41-.52-1.41-1.41Z"/>
        <path class="cls-1" d="M252.16,62.7V27.78c0-.89.52-1.41,1.41-1.41h1.2c.84,0,1.36.52,1.36,1.41v34.92c0,.89-.52,1.41-1.36,1.41h-1.2c-.89,0-1.41-.52-1.41-1.41Z"/>
        <path class="cls-1" d="M262.7,51.22c0-7.57,5.9-13.73,13.93-13.73,6.37,0,12.32,3.81,13,12.16.16.89-.42,1.41-1.36,1.41h-21.56c-.37,5.79,4.18,10.07,10.59,10.07,2.77,0,5.43-.78,7.83-2.61.68-.47,1.36-.42,1.93.16l.42.42c.57.63.57,1.46-.31,2.19-3.03,2.56-6.58,3.39-9.87,3.39-8.98,0-14.61-6.11-14.61-13.47ZM285.61,47.98c-1.2-5.38-5.27-6.94-8.87-6.94-4.07,0-8.14,2.14-9.66,6.94h18.53Z"/>
        <path class="cls-1" d="M295.73,62.7v-23.23c0-.84.52-1.41,1.36-1.41h1.2c.89,0,1.41.52,1.41,1.41v4.91c.99-4.23,3.81-6.89,7.62-6.89.31,0,.89.05,1.25.1.78.16.94.78.94,1.57v1.1c0,.99-.37,1.41-1.04,1.2-.47-.05-.99-.1-1.41-.1-3.34,0-7.31,2.92-7.36,12.84v8.51c0,.89-.52,1.41-1.41,1.41h-1.2c-.84,0-1.36-.52-1.36-1.41Z"/>
      </g>
      <g>
        <path class="cls-1" d="M316.43,38.03v.22c0,.18-.11.28-.29.28h-.96v3.06c0,.18-.1.28-.28.28h-.35c-.18,0-.28-.1-.28-.28v-3.06h-.95c-.18,0-.28-.1-.28-.28v-.22c0-.18.1-.28.28-.28h2.82c.18,0,.29.1.29.28Z"/>
        <path class="cls-1" d="M316.8,41.58l.33-3.56c.01-.18.12-.27.29-.27h.43c.17,0,.27.07.33.22l1.05,2.57,1.06-2.57c.06-.15.17-.22.33-.22h.43c.18,0,.28.09.3.27l.33,3.56c.02.19-.08.3-.27.3h-.36c-.18,0-.28-.09-.3-.27l-.19-2.26-.91,2.26c-.06.15-.17.22-.32.22h-.16c-.16,0-.27-.07-.32-.22l-.91-2.26-.19,2.26c-.01.18-.12.27-.29.27h-.36c-.19,0-.3-.11-.27-.3Z"/>
      </g>
      <g id="_x33_19_x2C__Email_x2C__Mail_x2C__Message">
        <path class="cls-1" d="M3.93,51.87h6.36c.3,0,.6-.3.6-.6s-.3-.6-.6-.6h-6.26c-.3,0-.6.3-.6.6s.2.6.5.6Z"/>
        <path class="cls-1" d="M6.61,48.2h13.61c.3,0,.6-.3.6-.6s-.3-.6-.6-.6H6.51c-.3,0-.6.3-.6.6s.3.6.6.6h.1Z"/>
        <path class="cls-1" d="M55.99,33.29H16.75c-1.89,0-3.38,1.49-3.38,3.38v2.88h-6.86c-.3,0-.6.3-.6.6s.3.6.6.6h6.86v3.08c0,.3.3.6.6.6s.6-.3.6-.6v-7.15c0-.79.4-1.49,1.09-1.89l20.57,17.49,20.57-17.49c-.3-.1-.6-.2-.99-.2h.2c.79,0,1.59.5,1.89,1.19l-13.61,11.43.1.1,13.51,14.51c-.3.7-1.09,1.19-1.89,1.19h-.1c.4,0,.7-.1.99-.3l-13.61-14.51-.1-.1-6.46,5.56c-.1.1-.3.1-.4.1s-.3,0-.4-.1l-6.46-5.56c0,.1-.1.1-.1.1l-13.71,14.61c-.6-.4-.99-.99-.99-1.79v-9.74c0-.3-.3-.6-.6-.6s-.6.3-.6.6v8.05h-4.37c-.3,0-.6.3-.6.6s.3.6.6.6h4.37v.4c0,1.89,1.49,3.38,3.38,3.38h39.15c1.89,0,3.38-1.49,3.38-3.38v-24.24c0-1.89-1.49-3.38-3.38-3.38Z"/>
        <path class="cls-1" d="M7.81,54.36H2.74c-.3,0-.6.3-.6.6s.3.6.6.6h5.07c.3,0,.6-.3.6-.6s-.3-.6-.6-.6Z"/>
      </g>
      <g>
        <path d="M14.25,77.13v5h5.5c.33,0,.52.19.52.52v.23c0,.33-.19.52-.52.52h-5.5v4.73h6.39c.33,0,.5.19.5.5v.23c0,.33-.17.52-.5.52h-7.39c-.33,0-.52-.19-.52-.52v-12.47c0-.33.19-.52.52-.52h7.39c.33,0,.5.19.5.52v.23c0,.31-.17.5-.5.5h-6.39Z"/>
        <path d="M23.19,83.9v-.73c0-.21.12-.31.31-.31h5.52c.19,0,.31.1.31.31v.73c0,.19-.12.31-.31.31h-5.52c-.19,0-.31-.12-.31-.31Z"/>
        <path d="M32.09,88.84l1.18-12.49c.02-.31.21-.48.52-.48h.85c.29,0,.48.12.6.41l4.73,10.94,4.73-10.94c.12-.29.31-.41.6-.41h.85c.31,0,.5.17.52.48l1.18,12.49c.02.35-.15.54-.5.54h-.48c-.33,0-.52-.17-.56-.48l-.95-10.81-4.63,10.71c-.12.27-.29.41-.58.41h-.35c-.29,0-.48-.13-.6-.41l-4.61-10.71-.95,10.81c-.04.31-.23.48-.56.48h-.48c-.35,0-.52-.19-.5-.54Z"/>
        <path d="M49.99,84.58c0-2.76,1.85-5.04,4.81-5.04,1.56,0,2.91.67,3.78,2.12v-1.39c0-.31.17-.52.5-.52h.44c.33,0,.52.19.52.52v8.59c0,.33-.19.52-.52.52h-.44c-.33,0-.5-.19-.5-.52v-1.37c-.87,1.47-2.24,2.1-3.78,2.1-2.91,0-4.81-2.26-4.81-5.02ZM58.6,84.58c0-2.12-1.47-3.72-3.65-3.72s-3.49,1.7-3.49,3.72,1.29,3.71,3.51,3.71,3.63-1.54,3.63-3.71Z"/>
        <path d="M62.91,76.55c0-.64.44-1.1,1.06-1.1s1.06.46,1.06,1.1-.46,1.08-1.06,1.08-1.06-.46-1.06-1.08ZM63.23,88.86v-8.59c0-.31.19-.52.52-.52h.44c.31,0,.5.19.5.52v8.59c0,.33-.19.52-.5.52h-.44c-.33,0-.52-.19-.52-.52Z"/>
        <path d="M67.94,88.86v-12.91c0-.33.19-.52.52-.52h.44c.31,0,.5.19.5.52v12.91c0,.33-.19.52-.5.52h-.44c-.33,0-.52-.19-.52-.52Z"/>
        <path d="M77.67,88.84l1.18-12.49c.02-.31.21-.48.52-.48h.85c.29,0,.48.12.6.41l4.73,10.94,4.73-10.94c.12-.29.31-.41.6-.41h.85c.31,0,.5.17.52.48l1.18,12.49c.02.35-.15.54-.5.54h-.48c-.33,0-.52-.17-.56-.48l-.95-10.81-4.63,10.71c-.12.27-.29.41-.58.41h-.35c-.29,0-.48-.13-.6-.41l-4.61-10.71-.95,10.81c-.04.31-.23.48-.56.48h-.48c-.35,0-.52-.19-.5-.54Z"/>
        <path d="M95.57,84.58c0-2.76,1.85-5.04,4.81-5.04,1.56,0,2.91.67,3.78,2.12v-1.39c0-.31.17-.52.5-.52h.44c.33,0,.52.19.52.52v8.59c0,.33-.19.52-.52.52h-.44c-.33,0-.5-.19-.5-.52v-1.37c-.87,1.47-2.24,2.1-3.78,2.1-2.91,0-4.81-2.26-4.81-5.02ZM104.18,84.58c0-2.12-1.47-3.72-3.65-3.72s-3.49,1.7-3.49,3.72,1.29,3.71,3.51,3.71,3.63-1.54,3.63-3.71Z"/>
        <path d="M108.76,88.86v-8.59c0-.31.19-.52.5-.52h.44c.33,0,.52.19.52.52v1.81c.37-1.56,1.41-2.55,2.82-2.55.12,0,.33.02.46.04.29.06.35.29.35.58v.41c0,.37-.13.52-.39.44-.17-.02-.37-.04-.52-.04-1.24,0-2.7,1.08-2.72,4.75v3.15c0,.33-.19.52-.52.52h-.44c-.31,0-.5-.19-.5-.52Z"/>
        <path d="M119.3,87.59l-2.26-3.17v4.44c0,.33-.19.52-.52.52h-.44c-.31,0-.5-.19-.5-.52v-12.91c0-.33.19-.52.5-.52h.44c.33,0,.52.19.52.52v7.95l3.49-3.84c.15-.21.37-.31.64-.31h.58c.44,0,.58.31.31.64l-3.51,3.82,1.97,2.66c.58.75,1.06,1.41,1.95,1.41.21,0,.6-.04.97-.21.19-.08.33-.06.42.12l.23.48c.1.17.02.42-.37.62-.56.29-1.18.31-1.41.31-1.68,0-2.43-1.27-3.01-2.01Z"/>
        <path d="M124.4,84.62c0-2.8,2.18-5.08,5.15-5.08,2.35,0,4.56,1.41,4.81,4.5.06.33-.15.52-.5.52h-7.97c-.13,2.14,1.54,3.72,3.92,3.72,1.02,0,2.01-.29,2.9-.96.25-.17.5-.15.71.06l.15.16c.21.23.21.54-.12.81-1.12.95-2.43,1.25-3.65,1.25-3.32,0-5.4-2.26-5.4-4.98ZM132.87,83.42c-.44-1.99-1.95-2.57-3.28-2.57-1.51,0-3.01.79-3.57,2.57h6.85Z"/>
        <path d="M136.95,86.37v-5.44h-1.31c-.21,0-.31-.1-.31-.31v-.56c0-.19.1-.31.31-.31h1.31l.29-2.47c.04-.29.21-.42.48-.42h.25c.29,0,.46.15.46.44v2.45h2.8c.19,0,.31.12.31.31v.56c0,.21-.12.31-.31.31h-2.8v5.54c0,1.41.66,1.83,1.39,1.83s1.37-.46,1.37-1.27c0-.06,0-.19-.04-.35-.02-.23.06-.35.27-.35h.68c.17,0,.31.08.35.25.08.31.08.64.08.64,0,1.33-.95,2.37-2.7,2.37-1.45,0-2.88-.69-2.88-3.22Z"/>
        <path d="M144.07,76.55c0-.64.44-1.1,1.06-1.1s1.06.46,1.06,1.1-.46,1.08-1.06,1.08-1.06-.46-1.06-1.08ZM144.4,88.86v-8.59c0-.31.19-.52.52-.52h.44c.31,0,.5.19.5.52v8.59c0,.33-.19.52-.5.52h-.44c-.33,0-.52-.19-.52-.52Z"/>
        <path d="M149.05,88.86v-8.59c0-.31.19-.52.5-.52h.44c.33,0,.52.19.52.52v1.52c.52-1.52,1.93-2.26,3.36-2.26,2.05,0,3.82,1.2,3.82,4.38v4.94c0,.33-.19.52-.52.52h-.44c-.33,0-.52-.19-.52-.52v-4.94c0-2.33-1.22-3.07-2.43-3.07-1.06,0-3.24.75-3.26,3.86v4.15c0,.33-.19.52-.52.52h-.44c-.31,0-.5-.19-.5-.52Z"/>
        <path d="M161.29,92.88c-.25-.17-.31-.42-.15-.71l.13-.23c.15-.33.39-.37.7-.15.95.62,1.95.85,3.05.85,2.08,0,3.51-1.27,3.51-3.47v-1.66c-.87,1.47-2.24,2.1-3.78,2.1-2.92,0-4.81-2.26-4.81-5.02s1.85-5.04,4.81-5.04c1.56,0,2.92.67,3.78,2.12v-1.39c0-.31.17-.52.5-.52h.44c.33,0,.52.19.52.52v8.99c0,3.09-2.26,4.65-4.98,4.65-1.62,0-2.76-.39-3.73-1.04ZM168.55,84.58c0-2.12-1.47-3.72-3.65-3.72s-3.49,1.7-3.49,3.72,1.29,3.71,3.51,3.71,3.63-1.54,3.63-3.71Z"/>
        <path d="M177.55,85.91c0-2.16,2.08-3.49,3.9-4.23-.96-.79-1.76-1.97-1.76-3.07,0-2.28,2.26-2.95,3.51-2.95,1.78,0,3.17,1.33,3.17,2.84s-1.47,2.88-2.93,3.51l2.9,3.28,1.81-2.45c.08-.13.21-.17.37-.17h.93c.23,0,.33.15.17.35l-2.43,3.24,1.1,1.25c.52.52.93.77,1.58.77.42,0,.89-.12,1.24-.29.17-.1.31-.1.41.1l.25.52c.08.15.06.29-.08.41-.44.37-1.04.58-1.85.58-1.2,0-1.89-.52-2.62-1.25l-.81-.93c-.91,1.41-2.59,2.18-4.19,2.18-2.55,0-4.65-1.31-4.65-3.69ZM185.54,86.45l-3.28-3.78c-1.41.48-3.22,1.54-3.22,3.2,0,1.5,1.43,2.49,3.17,2.49,1.33,0,2.43-.69,3.34-1.91ZM184.94,78.54c0-.83-.71-1.68-1.83-1.68-.87,0-1.93.52-1.93,1.81,0,.85.64,1.74,1.47,2.51,1.45-.7,2.3-1.76,2.3-2.64Z"/>
        <path d="M197.22,88.79l4.9-12.49c.1-.29.31-.42.6-.42h.93c.29,0,.5.13.6.42l4.92,12.49c.13.37-.02.6-.41.6h-.46c-.31,0-.5-.13-.62-.42l-.97-2.47h-7.04l-.96,2.47c-.1.29-.29.42-.6.42h-.48c-.39,0-.54-.23-.41-.6ZM206.26,85.23l-3.07-7.91-3.05,7.91h6.12Z"/>
        <path d="M210.89,85.23v-4.96c0-.31.19-.52.52-.52h.44c.33,0,.52.19.52.52v4.96c0,2.32,1.22,3.05,2.43,3.05,1.06,0,3.24-.75,3.26-3.86v-4.15c0-.33.19-.52.52-.52h.44c.33,0,.52.19.52.52v8.59c0,.33-.19.52-.52.52h-.44c-.33,0-.52-.19-.52-.52v-1.52c-.5,1.52-1.93,2.26-3.36,2.26-2.05,0-3.82-1.2-3.82-4.36Z"/>
        <path d="M223.07,86.37v-5.44h-1.31c-.21,0-.31-.1-.31-.31v-.56c0-.19.1-.31.31-.31h1.31l.29-2.47c.04-.29.21-.42.48-.42h.25c.29,0,.46.15.46.44v2.45h2.8c.19,0,.31.12.31.31v.56c0,.21-.12.31-.31.31h-2.8v5.54c0,1.41.66,1.83,1.39,1.83s1.37-.46,1.37-1.27c0-.06,0-.19-.04-.35-.02-.23.06-.35.27-.35h.68c.17,0,.31.08.35.25.08.31.08.64.08.64,0,1.33-.95,2.37-2.7,2.37-1.45,0-2.88-.69-2.88-3.22Z"/>
        <path d="M229.7,84.58c0-2.76,2.28-5.04,5.04-5.04s5.08,2.3,5.08,5.04-2.28,5.02-5.08,5.02-5.04-2.22-5.04-5.02ZM238.33,84.6c0-2.05-1.6-3.74-3.59-3.74s-3.55,1.7-3.55,3.74,1.6,3.69,3.55,3.69,3.59-1.66,3.59-3.69Z"/>
        <path d="M242.17,88.86v-8.59c0-.31.19-.52.5-.52h.44c.33,0,.52.19.52.52v1.5c.5-1.54,1.89-2.24,3.2-2.24,1.14,0,2.61.41,3.28,2.26.77-1.81,2.24-2.26,3.38-2.26,2.2,0,3.8,1.2,3.8,4.38v4.94c0,.33-.19.52-.52.52h-.44c-.33,0-.5-.19-.5-.52v-4.94c0-2.33-1.2-3.07-2.41-3.07-.98,0-2.86.67-2.95,3.71v4.3c0,.33-.19.52-.52.52h-.44c-.31,0-.5-.19-.5-.52v-4.94c0-2.33-1.18-3.07-2.41-3.07-1.06,0-2.93.75-2.95,3.86v4.15c0,.33-.19.52-.52.52h-.44c-.31,0-.5-.19-.5-.52Z"/>
        <path d="M259.54,84.58c0-2.76,1.85-5.04,4.81-5.04,1.56,0,2.91.67,3.78,2.12v-1.39c0-.31.17-.52.5-.52h.44c.33,0,.52.19.52.52v8.59c0,.33-.19.52-.52.52h-.44c-.33,0-.5-.19-.5-.52v-1.37c-.87,1.47-2.24,2.1-3.78,2.1-2.92,0-4.81-2.26-4.81-5.02ZM268.15,84.58c0-2.12-1.47-3.72-3.65-3.72s-3.49,1.7-3.49,3.72,1.29,3.71,3.51,3.71,3.63-1.54,3.63-3.71Z"/>
        <path d="M273.14,86.37v-5.44h-1.31c-.21,0-.31-.1-.31-.31v-.56c0-.19.1-.31.31-.31h1.31l.29-2.47c.04-.29.21-.42.48-.42h.25c.29,0,.46.15.46.44v2.45h2.8c.19,0,.31.12.31.31v.56c0,.21-.12.31-.31.31h-2.8v5.54c0,1.41.66,1.83,1.39,1.83s1.37-.46,1.37-1.27c0-.06,0-.19-.04-.35-.02-.23.06-.35.27-.35h.68c.17,0,.31.08.35.25.08.31.08.64.08.64,0,1.33-.95,2.37-2.7,2.37-1.45,0-2.88-.69-2.88-3.22Z"/>
        <path d="M280.26,76.55c0-.64.44-1.1,1.06-1.1s1.06.46,1.06,1.1-.46,1.08-1.06,1.08-1.06-.46-1.06-1.08ZM280.59,88.86v-8.59c0-.31.19-.52.52-.52h.44c.31,0,.5.19.5.52v8.59c0,.33-.19.52-.5.52h-.44c-.33,0-.52-.19-.52-.52Z"/>
        <path d="M284.47,84.58c0-2.76,2.28-5.04,5.04-5.04s5.08,2.3,5.08,5.04-2.28,5.02-5.08,5.02-5.04-2.22-5.04-5.02ZM293.1,84.6c0-2.05-1.6-3.74-3.59-3.74s-3.55,1.7-3.55,3.74,1.6,3.69,3.55,3.69,3.59-1.66,3.59-3.69Z"/>
        <path d="M296.94,88.86v-8.59c0-.31.19-.52.5-.52h.44c.33,0,.52.19.52.52v1.52c.52-1.52,1.93-2.26,3.36-2.26,2.05,0,3.82,1.2,3.82,4.38v4.94c0,.33-.19.52-.52.52h-.44c-.33,0-.52-.19-.52-.52v-4.94c0-2.33-1.22-3.07-2.43-3.07-1.06,0-3.24.75-3.26,3.86v4.15c0,.33-.19.52-.52.52h-.44c-.31,0-.5-.19-.5-.52Z"/>
      </g>
    </g>
  </g>
</svg>