<svg xmlns="http://www.w3.org/2000/svg" version="1.1" xmlns:xlink="http://www.w3.org/1999/xlink" width="512" height="512" x="0" y="0" viewBox="0 0 64 64" style="enable-background:new 0 0 512 512" xml:space="preserve" class=""><g><path d="M31.979 57.995a22.98 22.98 0 0 1-12.693-3.797c-8.426-5.572-12.263-16.222-9.331-25.9a2 2 0 1 1 3.828 1.16c-2.423 7.998.748 16.799 7.709 21.403 7.033 4.651 16.434 4.082 22.865-1.383 6.349-5.396 8.441-14.819 4.974-22.405-3.661-8.012-12.575-12.528-21.193-10.738a19.24 19.24 0 0 0-9.663 5.248 2 2 0 1 1-2.843-2.813 23.289 23.289 0 0 1 11.693-6.351c10.432-2.161 21.215 3.298 25.645 12.992 4.263 9.328 1.787 20.479-6.021 27.116-4.266 3.623-9.611 5.468-14.97 5.468z" fill="#9192a0" opacity="1" data-original="#000000" class=""></path><path d="M17.054 22.177a2 2 0 0 1-1.933-2.518l3.256-12.154A2 2 0 1 1 22.24 8.54l-3.256 12.154a2 2 0 0 1-1.93 1.483z" fill="#9192a0" opacity="1" data-original="#000000" class=""></path><path d="M29.208 25.435c-.172 0-.346-.022-.519-.069l-12.154-3.258a2 2 0 1 1 1.035-3.863l12.154 3.258a2 2 0 0 1-.516 3.932z" fill="#9192a0" opacity="1" data-original="#000000" class=""></path></g></svg>