<svg xmlns="http://www.w3.org/2000/svg" version="1.1" xmlns:xlink="http://www.w3.org/1999/xlink" width="512" height="512" x="0" y="0" viewBox="0 0 52 52" style="enable-background:new 0 0 512 512" xml:space="preserve" class=""><g><path d="M33.4 37.8H8.6c-1.4 0-2.6-1-2.9-2.3L2 19c-.1-.3 0-.6.2-.8s.4-.4.7-.4l9.1-1c.5-.1 1 .3 1.1.9.1.5-.3 1-.9 1.1l-7.9.9L7.6 35c.1.5.5.8 1 .8h24.8c.5 0 .9-.3 1-.8l4.3-19.1-7.7.9c-.5.1-1-.3-1.1-.9-.1-.5.3-1 .9-1.1l9.1-1c.3 0 .6.1.9.3.2.3.2.6.2.9l-4.6 20.4c-.4 1.4-1.6 2.4-3 2.4z" fill="#9192a0" opacity="1" data-original="#000000" class=""></path><path d="M40 15.8c-.2 0-.4-.1-.6-.2-.4-.3-.6-.9-.2-1.4l5-7c.2-.3.5-.4.8-.4h4c.6 0 1 .4 1 1s-.4 1-1 1h-3.5l-4.7 6.6c-.2.2-.5.4-.8.4zM21.5 27.3c-5.8 0-10.5-4.7-10.5-10.5S15.7 6.3 21.5 6.3 32 11 32 16.8s-4.7 10.5-10.5 10.5zm0-19c-4.7 0-8.5 3.8-8.5 8.5s3.8 8.5 8.5 8.5 8.5-3.8 8.5-8.5-3.8-8.5-8.5-8.5z" fill="#9192a0" opacity="1" data-original="#000000" class=""></path><path d="M19.6 20.9c-.3 0-.5-.1-.7-.3l-2.5-2.5c-.4-.4-.4-1 0-1.4s1-.4 1.4 0l1.8 1.8 5.5-5.5c.4-.4 1-.4 1.4 0s.4 1 0 1.4l-6.2 6.2c-.2.2-.4.3-.7.3zM12 45.7c-1.7 0-3-1.3-3-3s1.3-3 3-3 3 1.3 3 3-1.3 3-3 3zm0-4c-.6 0-1 .4-1 1s.4 1 1 1 1-.4 1-1-.4-1-1-1zM31 45.7c-1.7 0-3-1.3-3-3s1.3-3 3-3 3 1.3 3 3-1.3 3-3 3zm0-4c-.6 0-1 .4-1 1s.4 1 1 1 1-.4 1-1-.4-1-1-1z" fill="#9192a0" opacity="1" data-original="#000000" class=""></path></g></svg>